<svg width="63" height="73" viewBox="0 0 63 73" fill="none" xmlns="http://www.w3.org/2000/svg">
<path d="M24.1 17.1C24.1 16.3667 24.0333 15.6333 23.9 14.9C23.8333 14.1 23.6333 13.4 23.3 12.8C23.0333 12.1333 22.6 11.6 22 11.2C21.4667 10.8 20.7 10.6 19.7 10.6C18.4333 10.6 17.3667 11 16.5 11.8C16.1 10.7333 15.9 9.76666 15.9 8.9C15.9 7.83333 16.0667 6.8 16.4 5.79999C16.8 4.73333 17.4 3.8 18.2 3C19 2.2 20 1.56666 21.2 1.1C22.4667 0.566661 24 0.299994 25.8 0.299994C29.8 0.299994 32.9 1.49999 35.1 3.9C37.3 6.3 38.4 9.6 38.4 13.8V73C36.6 73 34.8333 72.8667 33.1 72.6C31.4333 72.3333 29.9 71.8 28.5 71C27.1667 70.1333 26.1 68.8667 25.3 67.2C24.5 65.5333 24.1 63.3 24.1 60.5V17.1ZM14.4 73H13.4C11.6667 73 10 72.8333 8.4 72.5C6.8 72.1667 5.36667 71.5667 4.1 70.7C2.9 69.8333 1.9 68.6333 1.1 67.1C0.366667 65.5667 7.45058e-08 63.5667 7.45058e-08 61.1V0.399999H1.6C3.2 0.399999 4.76667 0.599998 6.3 0.999997C7.83333 1.33333 9.2 1.96666 10.4 2.9C11.6 3.76666 12.5667 4.96666 13.3 6.5C14.0333 8.03333 14.4 10 14.4 12.4V73ZM48.1 17.1C48.1 16.3667 48.0333 15.6333 47.9 14.9C47.8333 14.1 47.6333 13.4 47.3 12.8C47.0333 12.1333 46.6 11.6 46 11.2C45.4667 10.8 44.7 10.6 43.7 10.6C42.4333 10.6 41.3667 11 40.5 11.8C40.1 10.7333 39.9 9.76666 39.9 8.9C39.9 7.83333 40.0667 6.8 40.4 5.79999C40.8 4.73333 41.4 3.8 42.2 3C43 2.2 44 1.56666 45.2 1.1C46.4667 0.566661 48 0.299994 49.8 0.299994C53.8 0.299994 56.9 1.49999 59.1 3.9C61.3 6.3 62.4 9.6 62.4 13.8V73C60.6 73 58.8333 72.8667 57.1 72.6C55.4333 72.3333 53.9 71.8 52.5 71C51.1667 70.1333 50.1 68.8667 49.3 67.2C48.5 65.5333 48.1 63.3 48.1 60.5V17.1Z" fill="#D6BD98"/>
</svg>
